<svg xmlns="http://www.w3.org/2000/svg" viewBox="0 0 760 240" role="img" aria-labelledby="title desc">
  <title id="title">Logo Servilimpieza</title>
  <desc id="desc">Logo verde con icono circular y texto Servilimpieza</desc>
  <g fill="none" stroke="#86d114" stroke-width="8">
    <circle cx="120" cy="120" r="78"/>
    <circle cx="120" cy="120" r="64"/>
  </g>
  <g fill="#86d114">
    <circle cx="120" cy="78" r="13"/>
    <path d="M106 101c9 4 20 4 29 0v44h-29z"/>
    <path d="M85 134c23 16 47 16 70 0 2-2 6-2 8 0s2 6 0 8c-27 19-59 19-86 0-2-2-3-6-1-8s6-3 9 0z"/>
    <path d="M87 152c22 13 44 13 66 0 2-2 6-1 8 1s1 6-1 8c-25 16-55 16-80 0-2-2-3-6-1-8s6-3 8-1z"/>
    <text x="235" y="142" font-family="Segoe UI, Arial, sans-serif" font-size="72" font-weight="700">Servilimpieza</text>
  </g>
</svg>
